<svg xmlns="http://www.w3.org/2000/svg" width="160" height="160" viewBox="0 0 160 160" version="1.1">
	<path d="M 61.193 121.838 C 61.349 126.424, 61.841 130.402, 62.287 130.677 C 62.733 130.953, 62.554 131.832, 61.891 132.631 C 60.992 133.715, 60.973 134.373, 61.819 135.219 C 62.653 136.053, 62.658 136.707, 61.838 137.695 C 61 138.705, 61.130 139.486, 62.362 140.847 C 63.263 141.843, 64 143.233, 64 143.936 C 64 144.639, 66.588 147.863, 69.750 151.101 C 75.119 156.597, 75.806 156.987, 80.115 156.993 C 84.987 157, 90 154.178, 90 151.427 C 90 150.642, 90.450 150, 91.001 150 C 91.552 150, 93.807 148.140, 96.013 145.867 C 99.159 142.625, 99.779 141.439, 98.890 140.367 C 98.064 139.372, 98.054 138.640, 98.854 137.676 C 99.654 136.712, 99.644 136.044, 98.819 135.219 C 97.973 134.373, 97.983 133.726, 98.855 132.675 C 99.759 131.585, 99.705 131, 98.616 130.096 C 97.138 128.869, 97.558 125, 99.169 125 C 99.683 125, 99.969 122.638, 99.802 119.750 L 99.500 114.500 80.205 114 L 60.909 113.500 61.193 121.838 M 68 116.118 C 66.075 116.458, 64.983 116.796, 65.574 116.868 C 66.164 116.941, 67.064 118.688, 67.574 120.750 C 68.430 124.216, 68.802 124.525, 72.487 124.825 C 74.680 125.003, 77.116 125.678, 77.901 126.325 C 79.028 127.254, 77.671 127.619, 71.413 128.067 C 63.976 128.599, 64.192 128.638, 75 128.717 C 81.325 128.763, 87.625 128.440, 89 128 C 91.007 127.357, 90.513 127.177, 86.500 127.084 C 80.231 126.940, 82.328 125.038, 88.781 125.015 C 93.190 125, 93.770 124.466, 94.238 120 C 94.382 118.625, 95.136 117.002, 95.913 116.394 C 96.964 115.572, 94.015 115.316, 84.413 115.394 C 77.311 115.452, 69.925 115.778, 68 116.118 M 80.605 130.717 C 79.082 131.107, 78.984 131.376, 80.105 132.086 C 80.977 132.638, 78.346 132.975, 73.083 132.985 C 68.454 132.993, 64.931 133.265, 65.255 133.588 C 66.171 134.505, 89.083 134.019, 93 133 C 96.269 132.150, 96.157 132.103, 91.298 132.295 C 85.607 132.519, 85.392 131.390, 91 130.731 C 93.036 130.492, 91.991 130.302, 88.500 130.276 C 85.200 130.252, 81.647 130.450, 80.605 130.717 M 80.122 138.104 C 73.865 138.554, 68.509 139.158, 68.221 139.446 C 67.440 140.226, 90.016 138.923, 93.500 137.987 C 96.150 137.274, 96.209 137.187, 94 137.233 C 92.625 137.262, 86.380 137.654, 80.122 138.104 M 75 143 C 72.525 143.275, 70.962 143.802, 71.526 144.170 C 72.574 144.856, 94.622 143.711, 95.403 142.931 C 95.998 142.335, 80.507 142.388, 75 143" stroke="none" fill="black" fill-rule="evenodd"/>
</svg>